HIERARCHY
ROOT joint_Root
{
	OFFSET 0.0 0.0 0.0
	CHANNELS 6 Xposition Yposition Zposition Zrotation Xrotation Yrotation 
	JOINT Hips
	{
		OFFSET -17.1583 93.1646 452.98
		CHANNELS 6 Xposition Yposition Zposition Zrotation Xrotation Yrotation 
		JOINT Spine
		{
			OFFSET 15.7357 0.0 0.0
			CHANNELS 6 Xposition Yposition Zposition Zrotation Xrotation Yrotation 
			JOINT Chest
			{
				OFFSET 8.98455 -0.406207 0.0
				CHANNELS 6 Xposition Yposition Zposition Zrotation Xrotation Yrotation 
				JOINT Neck
				{
					OFFSET 16.3773 0.0 0.0
					CHANNELS 6 Xposition Yposition Zposition Zrotation Xrotation Yrotation 
					JOINT Head
					{
						OFFSET 6.45672 0.0 0.0
						CHANNELS 6 Xposition Yposition Zposition Zrotation Xrotation Yrotation 
						End Site
						{
							OFFSET 0.0 0.0 0.0
						}
					}
				}
				JOINT Shoulder_L
				{
					OFFSET 12.9942 -0.242716 4.98039
					CHANNELS 6 Xposition Yposition Zposition Zrotation Xrotation Yrotation 
					JOINT UpperArm_L
					{
						OFFSET 5.34809 0.0 0.0
						CHANNELS 6 Xposition Yposition Zposition Zrotation Xrotation Yrotation 
						JOINT LowerArm_L
						{
							OFFSET 24.3286 1.87007e-05 0.0
							CHANNELS 6 Xposition Yposition Zposition Zrotation Xrotation Yrotation 
							JOINT Hand_L
							{
								OFFSET 22.2916 0.0 0.0
								CHANNELS 6 Xposition Yposition Zposition Zrotation Xrotation Yrotation 
								End Site
								{
									OFFSET 0.0 0.0 0.0
								}
							}
						}
					}
				}
				JOINT Shoulder_R
				{
					OFFSET 12.9945 -0.242716 -4.98039
					CHANNELS 6 Xposition Yposition Zposition Zrotation Xrotation Yrotation 
					JOINT UpperArm_R
					{
						OFFSET -5.34813 0.0 0.0
						CHANNELS 6 Xposition Yposition Zposition Zrotation Xrotation Yrotation 
						JOINT LowerArm_R
						{
							OFFSET -24.3289 0.000322201 0.0
							CHANNELS 6 Xposition Yposition Zposition Zrotation Xrotation Yrotation 
							JOINT Hand_R
							{
								OFFSET -22.2915 -0.000108084 0.0
								CHANNELS 6 Xposition Yposition Zposition Zrotation Xrotation Yrotation 
								End Site
								{
									OFFSET 0.0 0.0 0.0
								}
							}
						}
					}
				}
			}
		}
		JOINT UpperLeg_L
		{
			OFFSET -2.19248 -6.46944 0.0
			CHANNELS 6 Xposition Yposition Zposition Zrotation Xrotation Yrotation 
			JOINT LowerLeg_L
			{
				OFFSET 39.0811 0.0 -1.23785e-05
				CHANNELS 6 Xposition Yposition Zposition Zrotation Xrotation Yrotation 
				JOINT Foot_L
				{
					OFFSET 40.9854 0.0 -1.26872e-05
					CHANNELS 6 Xposition Yposition Zposition Zrotation Xrotation Yrotation 
					JOINT Toes_L
					{
						OFFSET 11.7543 0.0 0.0
						CHANNELS 6 Xposition Yposition Zposition Zrotation Xrotation Yrotation 
						End Site
						{
							OFFSET 0.0 0.0 0.0
						}
					}
				}
			}
		}
		JOINT UpperLeg_R
		{
			OFFSET -2.19251 6.46944 0.0
			CHANNELS 6 Xposition Yposition Zposition Zrotation Xrotation Yrotation 
			JOINT LowerLeg_R
			{
				OFFSET -39.0811 -0.00228153 -0.0401928
				CHANNELS 6 Xposition Yposition Zposition Zrotation Xrotation Yrotation 
				JOINT Foot_R
				{
					OFFSET -40.9854 0.0 0.0
					CHANNELS 6 Xposition Yposition Zposition Zrotation Xrotation Yrotation 
					JOINT Toes_R
					{
						OFFSET -11.7543 0.0 0.0
						CHANNELS 6 Xposition Yposition Zposition Zrotation Xrotation Yrotation 
						End Site
						{
							OFFSET 0.0 0.0 0.0
						}
					}
				}
			}
		}
	}
}
MOTION
Frames:	8
Frame Time:	0.0333333
0.000000 0.000000 0.000000 0.000000 0.000000 -0.000000 -228.999000 87.726300 295.499000 -51.590600 79.446400 141.085000 15.735700 0.000005 -0.000001 43.594200 86.110300 -38.889400 8.984550 -0.406207 -0.000000 -2.140490 -6.038660 9.302910 16.377300 -0.000001 -0.000001 -0.851804 2.515290 -3.256430 6.456720 -0.000001 -0.000000 5.802500 3.896380 -7.405070 12.994200 -0.242716 4.980390 -93.291400 11.492700 -73.900200 5.348090 -0.000007 -0.000001 -69.857600 13.796100 -6.886700 24.328600 0.000019 0.000005 14.220800 44.633100 -19.843400 22.291600 -0.000001 0.000005 -15.163100 5.357940 -1.567780 12.994500 -0.242716 -4.980390 88.343800 4.867610 -71.183300 -5.348130 -0.000001 -0.000004 -62.630900 -1.611510 1.795210 -24.328900 0.000322 -0.000009 0.321950 3.651080 -5.070320 -22.291500 -0.000108 -0.000004 6.650650 5.113600 4.781900 -2.192480 -6.469440 -0.000000 -166.138000 3.325960 -6.869840 39.081100 -0.000007 -0.000012 0.236978 -0.153399 57.083900 40.985400 -0.000006 -0.000013 -14.513500 16.566200 -18.025700 11.754300 -0.000000 0.000003 0.000908 0.017018 -15.886600 -2.192510 6.469440 -0.000001 -169.395000 8.268870 158.757000 -39.081100 -0.002282 -0.040193 0.259536 -0.272573 43.234100 -40.985400 0.000008 0.000006 -1.251370 -6.755680 -78.983900 -11.754300 -0.000006 -0.000006 -0.006654 0.244331 -6.652900
0.000000 0.000000 0.000000 0.000000 0.000000 -0.000000 -225.403000 88.697500 295.343000 -52.126800 80.840600 142.417000 15.735700 0.000005 -0.000001 52.003100 86.544800 -47.989100 8.984550 -0.406207 -0.000000 -2.148980 -4.599870 7.944480 16.377300 -0.000001 -0.000001 -0.039579 2.386380 -2.513580 6.456720 -0.000001 -0.000000 6.719710 3.553340 -5.750130 12.994200 -0.242716 4.980390 -93.083000 10.410500 -73.402100 5.348090 -0.000007 -0.000001 -70.928500 6.421490 -3.495290 24.328600 0.000019 0.000005 3.221280 49.466400 -4.234300 22.291600 -0.000001 0.000005 -19.474400 5.128680 4.433870 12.994500 -0.242716 -4.980390 88.235900 5.253020 -71.406800 -5.348130 -0.000001 -0.000004 -64.747300 5.104420 -2.210480 -24.328900 0.000322 -0.000009 0.154797 0.904969 -9.819430 -22.291500 -0.000108 -0.000004 3.172580 5.205400 2.571510 -2.192480 -6.469440 -0.000000 -167.659000 2.612760 -11.741700 39.081100 -0.000007 -0.000012 0.301210 -0.151296 63.329400 40.985400 -0.000006 -0.000013 -12.713600 12.925600 -26.735800 11.754300 -0.000000 0.000003 0.000889 0.016617 -15.902800 -2.192510 6.469440 -0.000001 -170.817000 6.260120 164.503000 -39.081100 -0.002282 -0.040193 0.084505 -0.100032 39.076000 -40.985400 0.000008 0.000006 -3.634800 -7.172800 -79.262900 -11.754300 -0.000006 -0.000006 -0.006175 0.240084 -6.826140
0.000000 0.000000 0.000000 0.000000 0.000000 -0.000000 -222.045000 89.946900 294.915000 -54.862200 83.495200 145.359000 15.735700 0.000005 -0.000001 63.564700 87.019000 -60.567600 8.984550 -0.406207 -0.000000 -2.345290 -2.917620 5.935180 16.377300 -0.000001 -0.000001 0.541112 2.427190 -1.890020 6.456720 -0.000001 -0.000000 7.490450 3.508740 -4.343340 12.994200 -0.242716 4.980390 -92.907900 9.337040 -72.614800 5.348090 -0.000007 -0.000001 -68.906900 -3.206520 1.768710 24.328600 0.000019 0.000005 0.000320 53.365800 -0.000000 22.291600 -0.000001 0.000005 -16.800300 4.772920 11.810500 12.994500 -0.242716 -4.980390 88.362500 4.966440 -71.726600 -5.348130 -0.000001 -0.000004 -66.162900 11.869200 -5.911580 -24.328900 0.000322 -0.000009 -0.039763 -0.125223 -17.061500 -22.291500 -0.000108 -0.000004 1.844560 5.257770 1.225170 -2.192480 -6.469440 -0.000000 -170.576000 0.927299 -16.091500 39.081100 -0.000007 -0.000012 0.302908 -0.139212 65.316600 40.985400 -0.000006 -0.000013 -11.275500 10.510700 -33.233300 11.754300 -0.000000 0.000003 0.000686 0.012489 -16.070400 -2.192510 6.469440 -0.000001 -173.174000 3.516530 169.850000 -39.081100 -0.002282 -0.040193 -0.006369 0.014357 33.941400 -40.985400 0.000008 0.000006 -5.131980 -7.266540 -77.962000 -11.754300 -0.000006 -0.000006 -0.005212 0.231172 -7.189550
0.000000 0.000000 0.000000 0.000000 0.000000 -0.000000 -218.835000 91.250100 294.404000 -58.048900 86.238900 148.457000 15.735700 0.000005 -0.000001 78.763500 87.342300 -76.663900 8.984550 -0.406207 -0.000000 -2.526820 -1.223910 4.172270 16.377300 -0.000001 -0.000001 0.937129 2.496860 -1.325460 6.456720 -0.000001 -0.000000 7.842400 3.441140 -3.868990 12.994200 -0.242716 4.980390 -93.012800 8.976820 -71.360400 5.348090 -0.000007 -0.000001 -64.408900 -5.910140 8.632920 24.328600 0.000019 0.000005 3.082620 53.374400 -3.840670 22.291600 -0.000001 0.000005 -15.553500 4.832590 10.701500 12.994500 -0.242716 -4.980390 88.599400 4.345610 -72.116600 -5.348130 -0.000001 -0.000004 -66.518800 16.577000 -9.329910 -24.328900 0.000322 -0.000009 -0.019716 -0.039221 -25.869400 -22.291500 -0.000108 -0.000004 2.051920 5.291210 0.318386 -2.192480 -6.469440 -0.000000 -173.444000 -0.139784 -19.668400 39.081100 -0.000007 -0.000012 0.274208 -0.136731 63.496600 40.985400 -0.000006 -0.000013 -11.105100 9.303750 -37.799700 11.754300 -0.000000 0.000003 0.000605 0.010904 -16.134800 -2.192510 6.469440 -0.000001 -175.438000 2.204040 173.996000 -39.081100 -0.002282 -0.040193 -0.010108 0.023634 29.571800 -40.985400 0.000008 0.000006 -5.365690 -6.669280 -74.945200 -11.754300 -0.000006 -0.000006 -0.002010 0.196508 -8.600790
0.000000 0.000000 0.000000 0.000000 0.000000 -0.000000 -215.793000 92.485800 293.932000 -47.550600 88.588400 137.418000 15.735700 0.000005 -0.000001 98.696200 87.525700 -97.184700 8.984550 -0.406207 -0.000000 -2.880700 0.607522 3.038580 16.377300 -0.000001 -0.000001 1.211230 2.608380 -1.001910 6.456720 -0.000001 -0.000000 7.891250 3.058300 -3.619120 12.994200 -0.242716 4.980390 -93.128200 8.520630 -69.752800 5.348090 -0.000007 -0.000001 -59.812000 -6.470310 14.253900 24.328600 0.000019 0.000005 5.585510 44.766200 -7.910260 22.291600 -0.000001 0.000005 -12.076400 5.053970 6.173410 12.994500 -0.242716 -4.980390 88.785400 3.873210 -72.574700 -5.348130 -0.000001 -0.000004 -65.895300 18.778000 -12.277400 -24.328900 0.000322 -0.000009 -0.382715 -0.541802 -35.080500 -22.291500 -0.000108 -0.000004 2.849540 5.331490 -0.825931 -2.192480 -6.469440 -0.000000 -175.104000 -0.645462 -22.407200 39.081100 -0.000007 -0.000012 0.234424 -0.143833 58.467700 40.985400 -0.000006 -0.000013 -11.932500 10.818400 -44.623300 11.754300 -0.000000 0.000003 0.001851 0.041401 -14.897300 -2.192510 6.469440 -0.000001 -177.177000 2.053550 177.080000 -39.081100 -0.002282 -0.040193 -0.007111 0.021783 25.568900 -40.985400 0.000008 0.000006 -5.045780 -5.179820 -70.795400 -11.754300 -0.000006 -0.000006 0.000670 0.155508 -10.266500
0.000000 0.000000 0.000000 0.000000 0.000000 -0.000000 -212.857000 93.440500 293.460000 75.631100 89.047800 13.393100 15.735700 0.000005 -0.000001 120.299000 87.433900 -119.218000 8.984550 -0.406207 -0.000000 -3.358930 2.483080 2.234580 16.377300 -0.000001 -0.000001 1.383810 2.669720 -0.947447 6.456720 -0.000001 -0.000000 7.724520 2.374460 -3.327010 12.994200 -0.242716 4.980390 -93.045300 7.776570 -68.536500 5.348090 -0.000007 -0.000001 -54.805200 -10.068500 18.475000 24.328600 0.000019 0.000005 4.454380 30.987200 -8.609520 22.291600 -0.000001 0.000005 -10.148500 5.146690 4.021870 12.994500 -0.242716 -4.980390 88.899800 3.595390 -72.973600 -5.348130 -0.000001 -0.000004 -64.576400 19.415800 -15.072400 -24.328900 0.000322 -0.000009 -1.378800 -1.450320 -43.512200 -22.291500 -0.000108 -0.000004 4.284200 5.370360 -1.993680 -2.192480 -6.469440 -0.000000 -176.198000 -0.853651 -24.022800 39.081100 -0.000007 -0.000012 0.167422 -0.141474 49.801100 40.985400 -0.000006 -0.000013 -11.196500 12.395000 -49.138300 11.754300 -0.000000 0.000003 0.001438 0.029354 -15.386000 -2.192510 6.469440 -0.000001 -178.734000 2.940740 179.646000 -39.081100 -0.002282 -0.040193 -0.001086 0.011076 21.684100 -40.985400 0.000008 0.000006 -3.987160 -3.083860 -66.770400 -11.754300 -0.000006 -0.000006 0.002299 0.106950 -12.236200
0.000000 0.000000 0.000000 0.000000 0.000000 -0.000000 -209.918000 94.036600 293.071000 95.123800 88.071000 -6.741660 15.735700 0.000005 -0.000001 131.839000 87.143200 -131.013000 8.984550 -0.406207 -0.000000 -3.539320 3.727620 1.769540 16.377300 -0.000001 -0.000001 1.105870 2.687940 -1.029730 6.456720 -0.000001 -0.000000 7.602150 1.724590 -3.275590 12.994200 -0.242716 4.980390 -92.815200 6.947350 -67.876300 5.348090 -0.000007 -0.000001 -50.329800 -14.092800 21.873800 24.328600 0.000019 0.000005 2.736800 17.612200 -8.979400 22.291600 -0.000001 0.000005 -7.801580 5.083610 5.477410 12.994500 -0.242716 -4.980390 89.050400 3.172750 -73.328100 -5.348130 -0.000001 -0.000004 -63.369000 18.746500 -17.982000 -24.328900 0.000322 -0.000009 -2.219860 -1.827320 -50.537100 -22.291500 -0.000108 -0.000004 5.325690 5.400680 -2.957320 -2.192480 -6.469440 -0.000000 -176.591000 -0.433685 -24.382800 39.081100 -0.000007 -0.000012 0.107259 -0.135387 38.387300 40.985400 -0.000006 -0.000013 -10.420200 12.584500 -50.737200 11.754300 -0.000000 0.000003 0.001637 0.034782 -15.165800 -2.192510 6.469440 -0.000001 179.988000 4.887570 -177.616000 -39.081100 -0.002282 -0.040193 0.002550 0.002375 18.063800 -40.985400 0.000008 0.000006 -3.254590 -0.965283 -63.514700 -11.754300 -0.000006 -0.000006 0.002294 0.060377 -14.124300
0.000000 0.000000 0.000000 0.000000 0.000000 -0.000000 -206.808000 94.139600 292.815000 93.819600 87.930100 -5.528300 15.735700 0.000005 -0.000001 134.216000 86.846600 -133.438000 8.984550 -0.406207 -0.000000 -3.279150 4.321070 1.679600 16.377300 -0.000001 -0.000001 0.548054 2.688330 -1.310730 6.456720 -0.000001 -0.000000 7.329420 1.229420 -3.214900 12.994200 -0.242716 4.980390 -92.452400 6.004460 -67.734800 5.348090 -0.000007 -0.000001 -46.628500 -18.330300 24.112100 24.328600 0.000019 0.000005 1.757510 11.776100 -8.549160 22.291600 -0.000001 0.000005 -2.502390 5.025740 6.738520 12.994500 -0.242716 -4.980390 89.291800 2.417870 -73.669800 -5.348130 -0.000001 -0.000004 -62.880800 17.396600 -20.799200 -24.328900 0.000322 -0.000009 -2.873130 -1.944290 -55.924400 -22.291500 -0.000108 -0.000004 6.218970 5.416370 -3.476330 -2.192480 -6.469440 -0.000000 -176.392000 -0.210250 -22.737700 39.081100 -0.000007 -0.000012 0.054623 -0.117869 24.863900 40.985400 -0.000006 -0.000013 -9.016740 13.564200 -53.110700 11.754300 -0.000000 0.000003 0.001870 0.042051 -14.871000 -2.192510 6.469440 -0.000001 179.376000 6.693340 -174.427000 -39.081100 -0.002282 -0.040193 0.002238 0.004019 15.198400 -40.985400 0.000008 0.000006 -1.950510 0.307057 -61.179100 -11.754300 -0.000006 -0.000006 0.000155 0.002658 -16.465900
